<?xml version="1.0" encoding="utf-8"?>
<svg viewBox="8.062000274658203 7.5 82 82" width="79.87600708007812" height="80.43800354003906" xmlns="http://www.w3.org/2000/svg">
  <path d="M 49.062 80.844 C 64.625 80.844 77 68.281 77 52.719 C 77 37.157 64.625 24.781 49.062 24.781 C 33.499 24.781 21.124 37.156 21.124 52.719 C 21.124 68.282 33.499 80.844 49.062 80.844 Z M 49.062 16.719 C 68.937 16.719 85.062 32.844 85.062 52.719 C 85.062 72.594 68.937 88.719 49.062 88.719 C 29.187 88.719 13.062 72.594 13.062 52.719 C 13.062 32.844 29.187 16.719 49.062 16.719 Z M 51.125 32.844 L 51.125 53.844 L 67.063 63.219 L 64.063 68.094 L 45.125 56.844 L 45.125 32.844 L 51.125 32.844 Z M 32.562 14.281 L 14.187 29.656 L 9.124 23.656 L 27.499 8.281 Z M 89 23.656 L 83.937 29.844 L 65.562 14.281 L 70.625 8.281 Z" style="fill: rgb(76, 76, 76);"/>
</svg>